    <svg xmlns="http://www.w3.org/2000/svg" width="512" height="512" viewBox="-11 0 507 507.7"><path fill="#628b8d" d="M148.2 4.3h191a34.7 34.7 0 0 1 34.6 34.8v347a34.7 34.7 0 0 1-34.7 34.8H148.2a34.7 34.7 0 0 1-34.7-34.7V39a34.7 34.7 0 0 1 34.7-34.8zm0 0" data-old_color="#628b8d" data-original="#628B8D"/><path fill="#8aa8a9" d="M373.8 39v45.2a859.5 859.5 0 0 0-260.3 241V39.1a34.7 34.7 0 0 1 34.7-34.8h191a34.7 34.7 0 0 1 34.6 34.8zm0 0" data-old_color="#8aa8a9" data-original="#8AA8A9"/><path fill="#fff" d="M226.3 186.6c0-28.8-15.5-52-34.7-52-19.2 0-34.7 23.2-34.7 52 0 28.7 15.5 52 34.7 52 19.2 0 34.7-23.3 34.7-52zm0 0M330.5 186.6c0-28.8-15.6-52-34.8-52-19.1 0-34.7 23.2-34.7 52 0 28.7 15.6 52 34.7 52 19.2 0 34.8-23.3 34.8-52zm0 0" data-original="#FFF"/><path fill="#3c6e71" d="M224 168.3c-22.5-.7-45 2.5-66.6 9.4 2.8-24.5 17-43.2 34.2-43.2 15 0 27.6 14 32.5 33.8zm0 0M330 177.7c-21.6-6.9-44.1-10-66.7-9.4 4.9-19.7 17.5-33.8 32.4-33.8 17.2 0 31.5 18.7 34.2 43.2zm0 0" data-old_color="#3c6e71" data-original="#3C6E71"/><path fill="#5d5d5d" d="M113.5 186.6a77.5 77.5 0 0 0-60.7 28c-33.5 40.9-26 78.2-26 78.2-43.5 50.7-28.2 93.4 8.6 93.4 34.7 0 34.7-43.4 34.7-43.4 26-8.7-8.7-47.2-8.7-47.2s-2-81.9 52.1-74.3M373.8 221.3c54.1-7.6 51.8 74.3 51.8 74.3s-34.8 38.5-8.7 47.2c0 0 0 43.4 34.7 43.4 36.8 0 52-42.7 8.7-93.4 0 0 7.4-37.3-26-78.1a76.8 76.8 0 0 0-60.5-28.1" data-old_color="#5d5d5d" data-original="#5D5D5D"/><g fill="#2c2f38"><path fill="#353535" d="M165.6 4.3L179 39.1c3 5.5 9 8.9 15.3 8.6H293c6.3.3 12.2-3.1 15.3-8.6l13.5-34.8M156.9 39a8.7 8.7 0 1 1-17.4 0 8.7 8.7 0 0 1 17.4 0zm0 0M347.8 39a8.7 8.7 0 1 1-17.3 0 8.7 8.7 0 0 1 17.3 0zm0 0M183 420.9h34.6v49.9H183zm0 0M269.7 420.9h34.7v49.9h-34.7zm0 0" data-old_color="#000000" data-original="#353535"/></g><path fill="#5d5d5d" d="M156.9 507.7a43.4 43.4 0 0 1 86.8 0zm0 0M243.7 507.7a43.4 43.4 0 0 1 86.8 0zm0 0" data-old_color="#5d5d5d" data-original="#5D5D5D"/><path d="M339.1 425.2H148.2a39 39 0 0 1-39-39V39a39 39 0 0 1 39-39.1h191a39 39 0 0 1 39 39v347.2a39 39 0 0 1-39 39zM148.2 8.7A30.4 30.4 0 0 0 117.8 39v347a30.4 30.4 0 0 0 30.4 30.4h191a30.4 30.4 0 0 0 30.3-30.3V39a30.4 30.4 0 0 0-30.4-30.4zm0 0" class="active-path" data-old_color="#2C2F38" data-original="#000000"/><path fill="#5d5d5d" d="M209 195.3a8.7 8.7 0 1 1-17.4 0 8.7 8.7 0 0 1 17.4 0zm0 0M313.1 195.3a8.7 8.7 0 1 1-17.4 0 8.7 8.7 0 0 1 17.4 0zm0 0" data-old_color="#5d5d5d" data-original="#5D5D5D"/><path fill="#fff" d="M200.3 186.6a8.7 8.7 0 1 1-17.4 0 8.7 8.7 0 0 1 17.4 0zm0 0M304.4 186.6a8.7 8.7 0 1 1-17.3 0 8.7 8.7 0 0 1 17.3 0zm0 0" data-original="#FFF"/><path fill="#3c6e71" d="M200.3 325.4a8.7 8.7 0 0 1-7.8-12.5c10.2-20.4 45.2-29.6 49-30.6a8.7 8.7 0 0 1 4.3 16.8c-12 3-32.7 11.5-37.7 21.5a8.7 8.7 0 0 1-7.8 4.8zm0 0M183 351.5c-1.8 0-3.4-.6-4.9-1.5a35.9 35.9 0 0 1-18-25.6 29.4 29.4 0 0 1 8-22.5 8.7 8.7 0 0 1 12.4 12.2 12.2 12.2 0 0 0-3.2 8.7c1.7 5.5 5.4 10 10.4 12.8a8.7 8.7 0 0 1-4.8 15.9zm0 0M217.6 117.2c-1.3 0-2.6-.4-3.8-1a75 75 0 0 0-61.7 0 8.7 8.7 0 1 1-7.7-15.5 92.2 92.2 0 0 1 77.1 0 8.7 8.7 0 0 1-3.9 16.5zm0 0M339.1 117.2a8.7 8.7 0 0 1-7.2-4c-14.6-21.8-44.5-22-44.8-22a8.7 8.7 0 1 1 0-17.4c1.6 0 39.6.3 59.3 29.9a8.7 8.7 0 0 1-7.3 13.5zm0 0" data-old_color="#3c6e71" data-original="#3C6E71"/></svg>